<svg width="184.29302978515625" height="48.14553426537168" xmlns="http://www.w3.org/2000/svg"
    preserveAspectRatio="xMidYMid meet">
    <g fill="#531DAB">
        <g>
            <svg height="48.14559" width="60" y="0" x="0">
                <g>
                    <svg viewBox="0 0 127.8499984741211 102.59000396728516">
                        <g>
                            <path d="m59.81,0l-38.13,0l-4.43,11.14l18.84,12.75l14.23,0l9.49,-23.89z" fill="#CF1322" />
                            <path
                                d="m57.62,102.59l29.48,0l40.75,-102.59l-29.49,0l-15.6,39.27l-28.13,0l15.6,-39.27l-29.49,0l-40.74,102.59l29.49,0l14.31,-36.04l-14.03,-4.09l43.78,0l-15.93,40.13z"
                                fill="#120338" />
                        </g>
                    </svg>
                </g>
            </svg>
        </g>
        <g>
            <path
                d="m94.21112,30.3428l2.99,-20.87l0,0q0.52,-3.37 2.99,-5.55q2.47,-2.18 5.85,-2.18l0,0l3.51,0l-5.85,44.4l-5.85,0q-1.63,0 -2.7,-1.24q-1.07,-1.24 -0.88,-2.99l0,0l0.33,-2.73q-3.9,3.64 -7.6,5.4l0,0q-3.71,1.82 -7.35,1.82l0,0q-4.16,0 -6.82,-1.37l0,0q-2.6,-1.37 -4.03,-3.7l0,0q-1.43,-2.34 -1.69,-5.4l0,0q-0.33,-3.12 0.32,-7.73l0,0l2.41,-17.42q0.65,-3.97 3.57,-6.5q2.93,-2.54 6.83,-2.54l0,0l2.21,0l-3.45,24.57q-0.45,3.18 -0.26,4.81l0,0q0.19,1.69 0.85,2.86l0,0q0.65,1.23 1.88,1.88l0,0q1.17,0.66 2.86,0.66l0,0q2.21,0 4.62,-1.57l0,0q2.4,-1.62 5.26,-4.61l0,0zm37.89,-12.67l0,0l0,0l-3.38,22.74q-0.39,2.61 -2.3,4.26q-1.92,1.66 -4.52,1.66l0,0l-5.27,0l5.2,-36.73q0.59,-3.31 3.03,-5.46q2.43,-2.14 5.75,-2.14l0,0l1.88,0l-0.84,6.89q3.84,-3.58 7.34,-5.33l0,0q3.52,-1.82 7.09,-1.82l0,0q2.47,0 4.36,0.52l0,0q1.88,0.52 3.31,1.49l0,0q1.36,0.98 2.28,2.28l0,0q0.97,1.36 1.49,2.99l0,0q2.02,-1.89 3.96,-3.25l0,0q1.89,-1.43 3.71,-2.28l0,0q1.75,-0.91 3.51,-1.29l0,0q1.76,-0.46 3.51,-0.46l0,0q3.97,0 6.5,1.36l0,0q2.53,1.37 3.84,3.64l0,0q1.36,2.28 1.62,5.4l0,0q0.32,3.05 -0.2,6.5l0,0l-4.03,27.69l-11.18,0l3.78,-25.8q0.25,-2.02 0.12,-3.71l0,0q-0.12,-1.63 -0.78,-2.79l0,0q-0.58,-1.18 -1.69,-1.83l0,0q-1.1,-0.65 -2.72,-0.65l0,0q-2.02,0 -4.29,1.57l0,0q-2.28,1.55 -5.08,4.55l0,0l-4.22,28.66l-11.18,0l3.77,-25.8q0.32,-2.02 0.13,-3.71l0,0q-0.13,-1.63 -0.72,-2.79l0,0q-0.58,-1.18 -1.69,-1.83l0,0q-1.1,-0.65 -2.72,-0.65l0,0q-2.09,0 -4.36,1.57l0,0q-2.28,1.55 -5.01,4.55z" />
        </g>
    </g>
</svg>